# xmcd CD database file
#
# Track frame offsets:
#	150
#	18020
#	34395
#	44512
#	60435
#	63660
#	78057
#	100605
#	121445
#	137637
#	152282
#	179195
#	184682
#	209065
#	227982
#
# Disc length: 3258 seconds
#
# Revision: 1
# Processed by: cddbd v1.5.1PL2 Copyright (c) Steve Scherf et al.
# Submitted via: CDex 1.51
#
DISCID=cb0cb80f
DTITLE=Samuel Rohrer, Claudio Puntin, Peter Herbert [Tree] - nolia
DYEAR=2004
DGENRE=Jazz
TTITLE0=d.o.d.d
TTITLE1=molna
TTITLE2=sieben lufthunde
TTITLE3=insomnia
TTITLE4=behind your back
TTITLE5=der lauf der dinge
TTITLE6=multiple taurus
TTITLE7=cathedral triangles
TTITLE8=vogel im zug
TTITLE9=cornucopia
TTITLE10=drought and tidal
TTITLE11=schwarzes licht
TTITLE12=waterlily
TTITLE13=langsam gehen
TTITLE14=peterchens mondfahrt
EXTD=YEAR: 2004
EXTT0=
EXTT1=
EXTT2=
EXTT3=
EXTT4=
EXTT5=
EXTT6=
EXTT7=
EXTT8=
EXTT9=
EXTT10=
EXTT11=
EXTT12=
EXTT13=
EXTT14=
PLAYORDER=
